# xmcd
#
# Track frame offsets:
#	150
#	13796
#	27438
#	41354
#	57159
#	71966
#	81749
#	96949
#	110562
#	126185
#	139770
#	153893
#	166224
#	179827
#
# Disc length: 2539 seconds
#
# Revision: 1
# Processed by: cddbd v1.4PL0 Copyright (c) Steve Scherf et al.
# Submitted via: audiograbber 1.81.02
#
DISCID=c809e90e
DTITLE=Dottie West - Dottie West - Absolutely The Best
DYEAR=2002
DGENRE=Country
TTITLE0=A Lesson In Leavin'
TTITLE1=What Are We Doing In Love? w/Kenny Rogers
TTITLE2=When It's Just You And Me
TTITLE3=Are You Happy Baby?
TTITLE4='Til I Can Make It On My Own w/Kenny Rogers
TTITLE5=Come See Me And Come Lonely
TTITLE6=Leavin's For Unbelievers
TTITLE7=Every Time Two Fools Collide w/Kenny Rogers
TTITLE8=(I'm Gonna) Put You Back On The Rack
TTITLE9=Every Word I Write
TTITLE10=All I Ever Need Is You w/Kenny Rogers
TTITLE11=You Pick Me Up (And Put Me Down)
TTITLE12=It's High Time
TTITLE13=Anyone Who Isn't Me Tonight w/Kenny Rogers
EXTD=Many tracks are duets w/Kenny Rogers
EXTT0=
EXTT1=
EXTT2=
EXTT3=
EXTT4=
EXTT5=
EXTT6=
EXTT7=
EXTT8=
EXTT9=
EXTT10=
EXTT11=
EXTT12=
EXTT13=
PLAYORDER=
